<?xml version="1.0" encoding="utf-8"?>
<!-- Svg Vector Icons : http://www.onlinewebfonts.com/icon -->
<!DOCTYPE svg PUBLIC "-//W3C//DTD SVG 1.1//EN" "http://www.w3.org/Graphics/SVG/1.1/DTD/svg11.dtd">
<svg version="1.1" xmlns="http://www.w3.org/2000/svg" xmlns:xlink="http://www.w3.org/1999/xlink" x="0px" y="0px" viewBox="0 0 256 256" enable-background="new 0 0 256 256" xml:space="preserve">
<metadata> Svg Vector Icons : http://www.onlinewebfonts.com/icon </metadata>
    <g><g><g><path fill="#000000" d="M68.8,10.2c-1.6,0.7-3.3,4.8-2.8,6.6c0.3,0.9,25.1,26.3,55.1,56.3l54.7,54.7l-54.7,54.7c-30,30.1-54.8,55.5-55.1,56.4c-0.5,2,1.3,5.9,3,6.6c4.2,1.6,3,2.7,62.9-57.3c31.7-31.7,57.8-58.3,58.1-59c0.3-0.7,0.2-2-0.2-3c-0.4-0.9-26.4-27.4-57.9-58.8C81.3,16.8,74.4,10.2,72.2,10C70.9,9.9,69.3,10.1,68.8,10.2z"/></g></g></g>
</svg>