<svg preserveAspectRatio="xMidYMid meet"
     data-bbox="32.5 16 135.2 168.1"
     xmlns="http://www.w3.org/2000/svg"
     viewBox="32.5 16 135.2 168.1"
     role="presentation"
     fill="rgb(42, 96, 73)"
     aria-hidden="true"
     aria-label="">
    <g>
        <path d="M159.6 58.3h-18.4V54c0-13.7-9.6-25.4-22.8-28-1.7-.3-3.5-.5-5.3-.5-1.7 0-3 1.3-3 3s1.3 3 3 3c1.4 0 2.8.1 4.2.4 10.4 2 18 11.3 18 22.1v4.3h-24.5v-12c0-16.7-13.4-30.3-29.9-30.3h-3.6c-16.5 0-29.9 13.6-29.9 30.3v12h-7c-4.3 0-7.9 3.5-7.9 7.9v110c0 4.3 3.5 7.9 7.9 7.9h119.3c4.3 0 7.9-3.5 8-7.9v-110c-.3-4.4-3.8-7.9-8.1-7.9zm-106.3-12C53.3 32.9 64 22 77.2 22h3.6c13.2 0 23.9 10.9 23.9 24.3v12H87.4V56c0-6 2.3-11.7 6.5-15.9 1.2-1.2 1.2-3.1 0-4.2-1.2-1.2-3.1-1.2-4.2 0-5.3 5.4-8.2 12.5-8.2 20.1v2.2H53.3V46.3zM38.5 176.1V66.2c0-1 .8-1.9 1.9-1.9l7-.1v14.9c0 1.7 1.3 3 3 3s3-1.3 3-3V64.3h51.5v14.9c0 1.7 1.3 3 3 3s3-1.3 3-3V64.3h15.2V178H40.3c-1 0-1.8-.8-1.8-1.9zm123.1 0c-.1 1-.9 1.9-2 1.9H149v-53.7c0-1.7-1.3-3-3-3s-3 1.3-3 3V178h-11.1V64.3H143v32.4c0 1.7 1.3 3 3 3s3-1.3 3-3V64.3h10.6c1 0 1.9.8 2 1.9v109.9z"></path>
    </g>
</svg>