<svg preserveAspectRatio="xMidYMid meet"
     data-bbox="13.5 40.8 173 118.3"
     xmlns="http://www.w3.org/2000/svg"
     viewBox="13.5 40.8 173 118.3"
     role="presentation"
     fill="rgb(42, 96, 73)"
     aria-hidden="true"
     aria-label="">
    <g>
        <path d="M179.7 80.6H163L144 45c-1.4-2.6-4-4.2-6.9-4.2H43.7c-4.4 0-7.9 3.7-7.9 8.2v14.7H16.5c-1.7 0-3 1.3-3 3s1.3 3 3 3h32.4c1.7 0 3-1.3 3-3s-1.3-3-3-3h-7.1V49c0-1.2.9-2.2 1.9-2.2h93.4c.6 0 1.3.4 1.6 1l20.7 38.7h20.3c.4 0 .8.5.8 1v29.6h-66.3v-58c0-1.7-1.3-3-3-3s-3 1.3-3 3v58H41.8V87.5h7.1c1.7 0 3-1.3 3-3s-1.3-3-3-3h-7.1v-3.8c0-1.7-1.3-3-3-3s-3 1.3-3 3v3.8h-7.6c-1.7 0-3 1.3-3 3s1.3 3 3 3h7.6v51.1c0 4.5 3.5 8.1 7.9 8.1h13.5c1.4 7.1 7.7 12.4 15.2 12.4 8.5 0 15.5-7 15.5-15.5s-7-15.5-15.5-15.5c-7.6 0-13.9 5.4-15.2 12.6H43.7c-1 0-1.9-1-1.9-2.1v-15.5h138.7v15.5c0 1.2-.8 2.1-1.9 2.1h-22.3c-1.4-7.2-7.7-12.6-15.2-12.6-7.6 0-13.9 5.4-15.2 12.6H94c-1.7 0-3 1.3-3 3s1.3 3 3 3h31.9c1.4 7.1 7.7 12.4 15.2 12.4 7.5 0 13.7-5.3 15.2-12.4h22.3c4.3 0 7.9-3.7 7.9-8.1v-51c0-3.9-3.1-7-6.8-7zM72.4 134.2c5.2 0 9.5 4.3 9.5 9.5s-4.3 9.5-9.5 9.5-9.5-4.3-9.5-9.5 4.2-9.5 9.5-9.5zm68.7 19c-5.2 0-9.5-4.3-9.5-9.5s4.3-9.5 9.5-9.5 9.5 4.3 9.5 9.5-4.3 9.5-9.5 9.5z"></path>
    </g>
</svg>
