<svg preserveAspectRatio="xMidYMid meet"
     data-bbox="18.3 21 162.401 158.782"
     xmlns="http://www.w3.org/2000/svg"
     width="200"
     height="200"
     viewBox="18.3 21 162.401 158.782"
     data-type="color"
     role="img"
     aria-label="Homepage"><defs><style>#comp-kaeyqv6u svg [data-color="1"] {fill: #2A6049;}</style></defs>
    <g>
        <path fill="#366a56" d="M169.9 84.9h-25.5l-15.7-36.5c4.9-2.3 8.3-7.2 8.3-13 0-7.9-6.4-14.3-14.3-14.3s-14.3 6.4-14.3 14.3c0 7.3 5.5 13.4 12.7 14.2l15.1 35.3H58.9L74 49.5c.7.1 1.4.2 2.2.2 7.9 0 14.3-6.4 14.3-14.3S84.1 21 76.2 21s-14.3 6.4-14.3 14.3c0 4.5 2 8.4 5.2 11.1L50.6 84.9H29.2s-10.9 0-10.9 9.3c0 0 0 9.3 12.4 9.3l10.9 68.4s0 7.8 15.6 7.8h88.6s10.9 1.6 12.4-9.3l7.8-66.9h2.3c12.4 0 12.4-9.3 12.4-9.3.1-9.3-10.8-9.3-10.8-9.3zm-47.2-42.8c-3.7 0-6.8-3-6.8-6.8s3-6.8 6.8-6.8c3.7 0 6.8 3 6.8 6.8s-3 6.8-6.8 6.8zM76.2 28.6c3.7 0 6.8 3 6.8 6.8s-3 6.8-6.8 6.8-6.8-3-6.8-6.8 3.1-6.8 6.8-6.8zm-34.3 76.5c-1.3 0-2.4-1.1-2.4-2.4 0-1.3 1.1-2.4 2.4-2.4l31.3.1c1.3 0 2.4 1.1 2.4 2.4 0 1.3-1.1 2.4-2.4 2.4l-31.3-.1zm18.8 55.5c0 1.3-1.1 2.4-2.4 2.4s-2.4-1.1-2.4-2.4v-38.9c0-1.3 1.1-2.4 2.4-2.4s2.4 1.1 2.4 2.4v38.9zm15.2 0c0 1.3-1.1 2.4-2.4 2.4-1.3 0-2.4-1.1-2.4-2.4v-38.9c0-1.3 1.1-2.4 2.4-2.4 1.3 0 2.4 1.1 2.4 2.4v38.9zm17 0c0 1.3-1.1 2.4-2.4 2.4s-2.4-1.1-2.4-2.4v-38.9c0-1.3 1.1-2.4 2.4-2.4s2.4 1.1 2.4 2.4v38.9zm17.1 0c0 1.3-1.1 2.4-2.4 2.4s-2.4-1.1-2.4-2.4v-38.9c0-1.3 1.1-2.4 2.4-2.4s2.4 1.1 2.4 2.4v38.9zm17.1 0c0 1.3-1.1 2.4-2.4 2.4s-2.4-1.1-2.4-2.4v-38.9c0-1.3 1.1-2.4 2.4-2.4s2.4 1.1 2.4 2.4v38.9zm16.1 0c0 1.3-1.1 2.4-2.4 2.4s-2.4-1.1-2.4-2.4v-38.9c0-1.3 1.1-2.4 2.4-2.4s2.4 1.1 2.4 2.4v38.9zm11-55.3l-63.7-.2c-1.3 0-2.4-1.1-2.4-2.4 0-1.3 1.1-2.4 2.4-2.4l63.6.2c1.3 0 2.4 1.1 2.4 2.4 0 1.4-1 2.4-2.3 2.4z" data-color="1"></path>
    </g>
</svg>