<svg preserveAspectRatio="xMidYMid meet"
     data-bbox="31.075 21.391 138.032 158.809"
     xmlns="http://www.w3.org/2000/svg"
     width="200"
     height="200"
     viewBox="31.075 21.391 138.032 158.809"
     data-type="color"
     role="presentation"
     aria-hidden="true"
     aria-label="">
    <defs>
        <style>#comp-j52ifm89 svg [data-color="1"] {fill: #135700;}</style>
    </defs>
    <g>
        <path fill="#366a56"
              d="M53 84.3c.8.3 1.7.2 2.4-.2.1-.1 11.2-7.5 15-13.3 17.7.5 35.5-4.3 50.6-13.7 1.1 1.3 2.9 3.3 4.4 5.1 5.9 7 14.8 17.5 21.4 22.1.5.3 1 .5 1.5.5.3 0 .6-.1 1-.2.8-.3 1.4-1 1.6-1.9 3.1-14.1 2.2-25.4-2.6-33.8-4.3-7.5-10.9-10.9-15.7-12.5-2.7-.9-4.6-1.3-6.1-1.4-4.3-7.3-11.4-11.9-20.6-13.2-7.6-1.1-14.6.3-17.2.9-12.8 3.1-24.1 11.2-31 22.1-7.1 11.2-9.4 24.8-6.4 37.6.3.9.9 1.6 1.7 1.9zm73.9-44.7c-.1.1-.2.2-.3.2.1 0 .2-.1.3-.2zm.3-.4c-.1.1-.1.2-.2.3.1-.1.1-.2.2-.3zm-.7.7c-.1.1-.3.2-.4.2.2 0 .3-.1.4-.2zm-64.2 7.8c6.2-9.8 16.3-17 27.8-19.8 4-1 24.4-5 32.6 11 .5.9 1.4 1.5 2.4 1.4h.2c1 0 10.2.7 16.4 8.4 5.3 6.5 6.9 16.1 4.9 28.6-5.6-5-12.3-13-17.1-18.6-4.2-4.9-5.7-6.7-6.8-7.4-.4-.3-.9-.4-1.4-.4-.5 0-1 .1-1.5.4-15 9.8-33 14.7-50.9 13.9-1.1 0-2.2.6-2.6 1.7-1 2.5-6.6 7.2-10.6 10.2-1.2-9.9 1.1-20.7 6.6-29.4z"
              data-color="1"></path>
        <path fill="#366a56"
              d="M69 151.1c-1.4 0-2.7 1.2-2.7 2.6 0 3.8-3.8 8.8-7.4 12.1-3.4 3.1-5.9 4.1-10.5 5.7-4.9 1.6-9.9 2.8-15 3.4-1.5.2-2.5 1.5-2.3 3 .2 1.3 1.3 2.3 2.6 2.3h.3c5.5-.7 10.9-1.9 16.1-3.7 4.7-1.6 8.1-2.9 12.4-6.7 2.1-1.9 9.1-8.7 9.2-16-.1-1.5-1.3-2.7-2.7-2.7z"
              data-color="1"></path>
        <path fill="#366a56"
              d="M166.7 174.9c-5.1-.6-10.2-1.8-15-3.4-4.6-1.5-7.1-2.6-10.5-5.7-3.7-3.3-7.4-8.3-7.4-12.1 0-1.5-1.2-2.7-2.7-2.6-1.5 0-2.6 1.2-2.6 2.7.1 7.3 7.1 14.1 9.2 16 4.3 3.8 7.7 5.2 12.4 6.7 5.2 1.8 10.6 3 16.1 3.7h.3c1.3 0 2.5-1 2.6-2.3.1-1.5-.9-2.9-2.4-3z"
              data-color="1"></path>
        <path fill="#366a56"
              d="M134.7 143.1c0-.1 0-.1 0 0 3.7-11.2 22.8-32.5 23-32.7l.1-.1c.2-.3 5.4-6.6 3.7-12.9-1-3.7-4-6.4-9-8.1-.1 0-.2-.1-.3-.1-1.4-.4-6.3-1.2-11.6 3.7-2.5 2.4-5.3 5.8-8.7 10.4-23-12.1-53.4-3.3-61.3-.7-1.1-1.5-2.1-2.9-3-4.1-1.5-2.2-2.9-4.1-4.2-5.6-4.4-4.8-9.4-5-12.6-3.6h-.1c-5.2 2.4-8.3 5.6-9 9.6-1.1 5.8 3.4 10.8 4 11.4.9 1 18.4 21 22 31.9.1.4.3.7.6 1 .1.2.3.4.5.6.3.3 8.2 6.8 20.1 10.2 3.9 1.1 8.6 1.9 13.7 1.9 9.3 0 20.3-2.8 31.3-11.6.4-.3.7-.7.8-1.2zm9.5-46.3c3.3-3.1 6-2.6 6.6-2.5 3.1 1.1 5 2.6 5.5 4.5.8 3-1.6 6.8-2.6 8-1 1.1-13.3 14.9-20.2 26.5l1.6-25.6c3.7-4.7 6.7-8.6 9.1-10.9zm-94.6 10s-.1-.1 0 0c-.9-1-3.2-4.1-2.7-6.9.4-2.2 2.4-4.1 5.9-5.7h.1c.7-.3 3.4-1.1 6.5 2.3 1.1 1.2 2.3 2.9 3.8 5.1 1 1.4 2.1 3 3.4 4.7v.5l1.2 23.9c-6.9-11.1-17.6-23.2-18.2-23.9zm24 34.1l-.4-8.8c2.3.4 5.7 1 9.6 1 1.4 0 2.6-1.2 2.7-2.6 0-1.5-1.1-2.7-2.6-2.7-4.4-.1-8.1-.8-9.9-1.2l-.4-7.7 14.6.3h.1c1.4 0 2.6-1.2 2.7-2.6 0-1.5-1.1-2.7-2.6-2.7l-15-.3-.3-5.9c6.8-2.3 36.6-11 57.8.5l-2.2 34.2c-24.9 17.5-48.3 2.8-54.1-1.5z"
              data-color="1"></path>
    </g>
</svg>